<svg width="1600" height="1000" viewBox="0 0 1600 1000" fill="none" xmlns="http://www.w3.org/2000/svg">
  <rect width="1600" height="1000" fill="#07101F"/>
  <rect x="82" y="82" width="1436" height="836" rx="42" fill="url(#paint0_linear_3_2)" stroke="#1C2946"/>
  <circle cx="1250" cy="726" r="246" fill="url(#paint1_radial_3_2)"/>
  <circle cx="376" cy="246" r="170" fill="url(#paint2_radial_3_2)"/>
  <rect x="164" y="162" width="1272" height="144" rx="30" fill="#0B1429"/>
  <rect x="164" y="348" width="392" height="478" rx="30" fill="#0D1630"/>
  <rect x="592" y="348" width="844" height="210" rx="30" fill="#0D1630"/>
  <rect x="592" y="596" width="844" height="230" rx="30" fill="#091120"/>
  <rect x="208" y="212" width="270" height="24" rx="12" fill="#63E3D7"/>
  <rect x="208" y="248" width="402" height="18" rx="9" fill="#EDF2FF"/>
  <rect x="210" y="406" width="194" height="194" rx="34" fill="url(#paint3_linear_3_2)"/>
  <rect x="210" y="646" width="224" height="22" rx="11" fill="#EDF2FF"/>
  <rect x="210" y="690" width="190" height="18" rx="9" fill="#6976A8"/>
  <rect x="648" y="398" width="372" height="30" rx="15" fill="#EDF2FF"/>
  <rect x="648" y="452" width="586" height="18" rx="9" fill="#6371A3"/>
  <rect x="648" y="488" width="522" height="18" rx="9" fill="#55638F"/>
  <rect x="648" y="646" width="298" height="24" rx="12" fill="#63E3D7"/>
  <rect x="648" y="692" width="594" height="18" rx="9" fill="#EDF2FF"/>
  <rect x="648" y="728" width="538" height="18" rx="9" fill="#6876A9"/>
  <defs>
    <linearGradient id="paint0_linear_3_2" x1="800" y1="82" x2="800" y2="918" gradientUnits="userSpaceOnUse">
      <stop stop-color="#101A34"/>
      <stop offset="1" stop-color="#091120"/>
    </linearGradient>
    <radialGradient id="paint1_radial_3_2" cx="0" cy="0" r="1" gradientUnits="userSpaceOnUse" gradientTransform="translate(1250 726) rotate(90) scale(246)">
      <stop stop-color="#5F6DFF"/>
      <stop offset="1" stop-color="#5F6DFF" stop-opacity="0"/>
    </radialGradient>
    <radialGradient id="paint2_radial_3_2" cx="0" cy="0" r="1" gradientUnits="userSpaceOnUse" gradientTransform="translate(376 246) rotate(90) scale(170)">
      <stop stop-color="#63E3D7"/>
      <stop offset="1" stop-color="#63E3D7" stop-opacity="0"/>
    </radialGradient>
    <linearGradient id="paint3_linear_3_2" x1="210" y1="406" x2="404" y2="600" gradientUnits="userSpaceOnUse">
      <stop stop-color="#63E3D7"/>
      <stop offset="1" stop-color="#5F6DFF"/>
    </linearGradient>
  </defs>
</svg>
