<svg width="1600" height="1000" viewBox="0 0 1600 1000" fill="none" xmlns="http://www.w3.org/2000/svg">
  <rect width="1600" height="1000" fill="#07101F"/>
  <rect x="68" y="68" width="1464" height="864" rx="40" fill="url(#paint0_linear_1_2)" stroke="rgba(255,255,255,0.1)"/>
  <circle cx="1228" cy="224" r="184" fill="url(#paint1_radial_1_2)" fill-opacity="0.8"/>
  <circle cx="348" cy="714" r="248" fill="url(#paint2_radial_1_2)" fill-opacity="0.9"/>
  <rect x="154" y="170" width="536" height="120" rx="24" fill="#0E1730"/>
  <rect x="154" y="334" width="904" height="286" rx="30" fill="#0C152B"/>
  <rect x="1120" y="334" width="312" height="286" rx="30" fill="#0B1327"/>
  <rect x="154" y="672" width="1278" height="114" rx="28" fill="#0D1730"/>
  <rect x="184" y="202" width="254" height="26" rx="13" fill="#63E3D7"/>
  <rect x="184" y="370" width="502" height="38" rx="19" fill="#EDF2FF"/>
  <rect x="184" y="430" width="690" height="20" rx="10" fill="#6674A8"/>
  <rect x="184" y="470" width="620" height="20" rx="10" fill="#4F5D8F"/>
  <rect x="184" y="510" width="576" height="20" rx="10" fill="#4F5D8F"/>
  <rect x="1148" y="372" width="198" height="198" rx="99" fill="url(#paint3_linear_1_2)"/>
  <defs>
    <linearGradient id="paint0_linear_1_2" x1="800" y1="68" x2="800" y2="932" gradientUnits="userSpaceOnUse">
      <stop stop-color="#101A34"/>
      <stop offset="1" stop-color="#091120"/>
    </linearGradient>
    <radialGradient id="paint1_radial_1_2" cx="0" cy="0" r="1" gradientUnits="userSpaceOnUse" gradientTransform="translate(1228 224) rotate(90) scale(184)">
      <stop stop-color="#5F6DFF"/>
      <stop offset="1" stop-color="#5F6DFF" stop-opacity="0"/>
    </radialGradient>
    <radialGradient id="paint2_radial_1_2" cx="0" cy="0" r="1" gradientUnits="userSpaceOnUse" gradientTransform="translate(348 714) rotate(90) scale(248)">
      <stop stop-color="#63E3D7"/>
      <stop offset="1" stop-color="#63E3D7" stop-opacity="0"/>
    </radialGradient>
    <linearGradient id="paint3_linear_1_2" x1="1148" y1="471" x2="1346" y2="471" gradientUnits="userSpaceOnUse">
      <stop stop-color="#63E3D7"/>
      <stop offset="1" stop-color="#5F6DFF"/>
    </linearGradient>
  </defs>
</svg>
